<?xml version="1.0" encoding="utf-8" standalone="no"?>
<!DOCTYPE svg PUBLIC "-//W3C//DTD SVG 1.1//EN"
  "http://www.w3.org/Graphics/SVG/1.1/DTD/svg11.dtd">
<!-- Created with matplotlib (http://matplotlib.org/) -->
<svg height="432pt" version="1.1" viewBox="0 0 576 432" width="576pt" xmlns="http://www.w3.org/2000/svg" xmlns:xlink="http://www.w3.org/1999/xlink">
 <defs>
  <style type="text/css">
*{stroke-linecap:butt;stroke-linejoin:round;stroke-miterlimit:100000;}
  </style>
 </defs>
 <g id="figure_1">
  <g id="patch_1">
   <path d="M 0 432 
L 576 432 
L 576 0 
L 0 0 
z
" style="fill:#ffffff;"/>
  </g>
  <g id="axes_1">
   <g id="patch_2">
    <path d="M 72 388.8 
L 518.4 388.8 
L 518.4 43.2 
L 72 43.2 
z
" style="fill:#ffffff;"/>
   </g>
   <g id="line2d_1">
    <path clip-path="url(#p3d79b5e4b6)" d="M 72 388.8 
L 72.26784 386.825143 
L 72.31248 386.825143 
L 72.4464 386.331429 
L 72.8928 386.331429 
L 73.116 384.850286 
L 73.16064 384.850286 
L 73.29456 384.356571 
L 73.38384 384.356571 
L 73.5624 383.369143 
L 73.65168 383.369143 
L 73.7856 382.875429 
L 73.87488 382.875429 
L 74.09808 381.394286 
L 74.14272 381.394286 
L 74.27664 380.900571 
L 74.4552 380.900571 
L 74.63376 379.913143 
L 75.30336 379.913143 
L 75.48192 378.925714 
L 75.61584 378.925714 
L 75.74976 378.432 
L 75.7944 378.432 
L 75.97296 377.444571 
L 76.10688 377.444571 
L 76.28544 376.457143 
L 76.41936 376.457143 
L 76.64256 374.976 
L 77.22288 374.976 
L 77.44608 373.494857 
L 77.49072 373.494857 
L 77.66928 372.507429 
L 78.11568 372.507429 
L 78.2496 372.013714 
L 78.33888 372.013714 
L 78.60672 370.038857 
L 78.65136 370.038857 
L 78.78528 369.545143 
L 78.82992 369.545143 
L 78.96384 369.051429 
L 79.27632 369.051429 
L 79.49952 367.570286 
L 79.67808 367.570286 
L 79.812 367.076571 
L 79.94592 367.076571 
L 80.07984 366.582857 
L 80.16912 366.582857 
L 80.30304 366.089143 
L 80.34768 366.089143 
L 80.57088 364.608 
L 80.88336 364.608 
L 81.01728 364.114286 
L 81.06192 364.114286 
L 81.28512 362.633143 
L 81.46368 362.633143 
L 81.64224 361.645714 
L 81.77616 361.645714 
L 81.95472 360.658286 
L 82.044 360.658286 
L 82.22256 359.670857 
L 82.40112 359.670857 
L 82.62432 358.189714 
L 83.24928 358.189714 
L 83.47248 356.708571 
L 83.6064 356.708571 
L 83.78496 355.721143 
L 84.85632 355.721143 
L 85.03488 354.733714 
L 87.66864 354.733714 
L 87.89184 353.252571 
L 88.2936 353.252571 
L 88.42752 352.758857 
L 89.14176 352.758857 
L 89.27568 352.265143 
L 89.32032 352.265143 
L 89.45424 351.771429 
L 89.49888 351.771429 
L 89.6328 351.277714 
L 89.81136 351.277714 
L 89.94528 350.784 
L 90.34704 350.784 
L 90.5256 349.796571 
L 90.79344 349.796571 
L 90.92736 349.302857 
L 91.32912 349.302857 
L 91.50768 348.315429 
L 91.82016 348.315429 
L 91.99872 347.328 
L 92.17728 347.328 
L 92.35584 346.340571 
L 93.56112 346.340571 
L 93.78432 344.859429 
L 93.8736 344.859429 
L 94.00752 344.365714 
L 94.36464 344.365714 
L 94.49856 343.872 
L 94.5432 343.872 
L 94.67712 343.378286 
L 95.16816 343.378286 
L 95.30208 342.884571 
L 95.70384 342.884571 
L 95.83776 342.390857 
L 96.7752 342.390857 
L 96.90912 341.897143 
L 97.48944 341.897143 
L 97.62336 341.403429 
L 97.8912 341.403429 
L 98.02512 340.909714 
L 98.87328 340.909714 
L 99.09648 339.428571 
L 99.18576 339.428571 
L 99.31968 338.934857 
L 99.36432 338.934857 
L 99.49824 338.441143 
L 100.5696 338.441143 
L 100.70352 337.947429 
L 102.48912 337.947429 
L 102.62304 337.453714 
L 104.63184 337.453714 
L 104.76576 336.96 
L 105.16752 336.96 
L 105.39072 335.478857 
L 106.3728 335.478857 
L 106.50672 334.985143 
L 106.72992 334.985143 
L 106.86384 334.491429 
L 107.712 334.491429 
L 107.9352 333.010286 
L 108.69408 333.010286 
L 108.828 332.516571 
L 109.00656 332.516571 
L 109.14048 332.022857 
L 109.31904 332.022857 
L 109.45296 331.529143 
L 110.07792 331.529143 
L 110.21184 331.035429 
L 110.56896 331.035429 
L 110.79216 329.554286 
L 112.66704 329.554286 
L 112.80096 329.060571 
L 112.89024 329.060571 
L 113.0688 328.073143 
L 114.05088 328.073143 
L 114.1848 327.579429 
L 115.25616 327.579429 
L 115.39008 327.085714 
L 115.70256 327.085714 
L 115.83648 326.592 
L 116.10432 326.592 
L 116.28288 325.604571 
L 117.5328 325.604571 
L 117.66672 325.110857 
L 117.80064 325.110857 
L 117.9792 324.123429 
L 119.00592 324.123429 
L 119.13984 323.629714 
L 119.58624 323.629714 
L 119.72016 323.136 
L 119.94336 323.136 
L 120.12192 322.148571 
L 120.74688 322.148571 
L 120.8808 321.654857 
L 121.05936 321.654857 
L 121.19328 321.161143 
L 121.46112 321.161143 
L 121.59504 320.667429 
L 123.06816 320.667429 
L 123.20208 320.173714 
L 123.42528 320.173714 
L 123.5592 319.68 
L 123.82704 319.68 
L 123.96096 319.186286 
L 124.05024 319.186286 
L 124.18416 318.692571 
L 124.54128 318.692571 
L 124.6752 318.198857 
L 124.76448 318.198857 
L 124.98768 316.717714 
L 125.96976 316.717714 
L 126.10368 316.224 
L 126.81792 316.224 
L 126.95184 315.730286 
L 127.75536 315.730286 
L 127.88928 315.236571 
L 127.93392 315.236571 
L 128.06784 314.742857 
L 128.29104 314.742857 
L 128.42496 314.249143 
L 128.55888 314.249143 
L 128.6928 313.755429 
L 128.82672 313.755429 
L 128.96064 313.261714 
L 129.22848 313.261714 
L 129.45168 311.780571 
L 129.63024 311.780571 
L 129.85344 310.299429 
L 130.56768 310.299429 
L 130.74624 309.312 
L 130.9248 309.312 
L 131.05872 308.818286 
L 131.77296 308.818286 
L 131.90688 308.324571 
L 132.57648 308.324571 
L 132.7104 307.830857 
L 133.64784 307.830857 
L 133.78176 307.337143 
L 134.00496 307.337143 
L 134.13888 306.843429 
L 134.2728 306.843429 
L 134.40672 306.349714 
L 135.96912 306.349714 
L 136.19232 304.868571 
L 136.68336 304.868571 
L 136.81728 304.374857 
L 136.86192 304.374857 
L 137.04048 303.387429 
L 138.0672 303.387429 
L 138.24576 302.4 
L 138.33504 302.4 
L 138.46896 301.906286 
L 138.55824 301.906286 
L 138.69216 301.412571 
L 139.27248 301.412571 
L 139.4064 300.918857 
L 140.20992 300.918857 
L 140.34384 300.425143 
L 140.70096 300.425143 
L 140.83488 299.931429 
L 141.23664 299.931429 
L 141.37056 299.437714 
L 142.35264 299.437714 
L 142.48656 298.944 
L 143.37936 298.944 
L 143.51328 298.450286 
L 144.67392 298.450286 
L 144.89712 296.969143 
L 145.12032 296.969143 
L 145.4328 294.500571 
L 145.47744 294.500571 
L 145.61136 294.006857 
L 146.14704 294.006857 
L 146.3256 293.019429 
L 146.9952 293.019429 
L 147.12912 292.525714 
L 148.42368 292.525714 
L 148.5576 292.032 
L 149.2272 292.032 
L 149.36112 291.538286 
L 150.61104 291.538286 
L 150.74496 291.044571 
L 150.87888 291.044571 
L 151.0128 290.550857 
L 151.28064 290.550857 
L 151.41456 290.057143 
L 151.59312 290.057143 
L 151.72704 289.563429 
L 151.81632 289.563429 
L 151.95024 289.069714 
L 154.04832 289.069714 
L 154.18224 288.576 
L 154.76256 288.576 
L 154.89648 288.082286 
L 157.30704 288.082286 
L 157.44096 287.588571 
L 157.79808 287.588571 
L 157.97664 286.601143 
L 158.02128 286.601143 
L 158.1552 286.107429 
L 158.46768 286.107429 
L 158.69088 284.626286 
L 158.91408 284.626286 
L 159.048 284.132571 
L 161.41392 284.132571 
L 161.54784 283.638857 
L 162.1728 283.638857 
L 162.30672 283.145143 
L 162.57456 283.145143 
L 162.75312 282.157714 
L 162.97632 282.157714 
L 163.11024 281.664 
L 163.2888 281.664 
L 163.42272 281.170286 
L 163.46736 281.170286 
L 163.60128 280.676571 
L 163.64592 280.676571 
L 163.82448 279.689143 
L 164.67264 279.689143 
L 164.8512 278.701714 
L 165.43152 278.701714 
L 165.56544 278.208 
L 165.69936 278.208 
L 165.83328 277.714286 
L 166.01184 277.714286 
L 166.14576 277.220571 
L 166.32432 277.220571 
L 166.45824 276.726857 
L 167.44032 276.726857 
L 167.57424 276.233143 
L 167.61888 276.233143 
L 167.7528 275.739429 
L 168.28848 275.739429 
L 168.4224 275.245714 
L 168.51168 275.245714 
L 168.6456 274.752 
L 168.82416 274.752 
L 168.95808 274.258286 
L 169.67232 274.258286 
L 169.85088 273.270857 
L 170.38656 273.270857 
L 170.56512 272.283429 
L 171.05616 272.283429 
L 171.23472 271.296 
L 171.27936 271.296 
L 171.41328 270.802286 
L 171.81504 270.802286 
L 171.94896 270.308571 
L 172.12752 270.308571 
L 172.26144 269.814857 
L 172.57392 269.814857 
L 172.70784 269.321143 
L 174.13632 269.321143 
L 174.27024 268.827429 
L 176.63616 268.827429 
L 176.77008 268.333714 
L 177.88608 268.333714 
L 178.02 267.84 
L 178.10928 267.84 
L 178.2432 267.346286 
L 178.60032 267.346286 
L 178.73424 266.852571 
L 179.26992 266.852571 
L 179.40384 266.358857 
L 179.62704 266.358857 
L 179.76096 265.865143 
L 180.07344 265.865143 
L 180.20736 265.371429 
L 180.60912 265.371429 
L 180.78768 264.384 
L 182.75184 264.384 
L 182.9304 263.396571 
L 183.28752 263.396571 
L 183.46608 262.409143 
L 183.64464 262.409143 
L 183.77856 261.915429 
L 183.91248 261.915429 
L 184.0464 261.421714 
L 184.58208 261.421714 
L 184.76064 260.434286 
L 184.98384 260.434286 
L 185.11776 259.940571 
L 186.0552 259.940571 
L 186.18912 259.446857 
L 186.45696 259.446857 
L 186.59088 258.953143 
L 186.76944 258.953143 
L 186.90336 258.459429 
L 186.948 258.459429 
L 187.08192 257.965714 
L 187.1712 257.965714 
L 187.34976 256.978286 
L 194.13504 256.978286 
L 194.26896 256.484571 
L 195.6528 256.484571 
L 195.83136 255.497143 
L 196.00992 255.497143 
L 196.14384 255.003429 
L 196.992 255.003429 
L 197.2152 253.522286 
L 197.97408 253.522286 
L 198.108 253.028571 
L 198.37584 253.028571 
L 198.50976 252.534857 
L 199.40256 252.534857 
L 199.58112 251.547429 
L 199.84896 251.547429 
L 199.98288 251.053714 
L 202.17024 251.053714 
L 202.30416 250.56 
L 203.15232 250.56 
L 203.28624 250.066286 
L 205.51824 250.066286 
L 205.65216 249.572571 
L 207.12528 249.572571 
L 207.2592 249.078857 
L 208.28592 249.078857 
L 208.41984 248.585143 
L 209.53584 248.585143 
L 209.66976 248.091429 
L 213.10704 248.091429 
L 213.24096 247.597714 
L 213.41952 247.597714 
L 213.55344 247.104 
L 215.33904 247.104 
L 215.47296 246.610286 
L 216.09792 246.610286 
L 216.23184 246.116571 
L 216.76752 246.116571 
L 216.90144 245.622857 
L 217.03536 245.622857 
L 217.16928 245.129143 
L 217.21392 245.129143 
L 217.34784 244.635429 
L 217.83888 244.635429 
L 217.9728 244.141714 
L 218.59776 244.141714 
L 218.73168 243.648 
L 218.91024 243.648 
L 219.0888 242.660571 
L 219.84768 242.660571 
L 220.02624 241.673143 
L 220.2048 241.673143 
L 220.33872 241.179429 
L 220.60656 241.179429 
L 220.74048 240.685714 
L 220.82976 240.685714 
L 220.96368 240.192 
L 221.05296 240.192 
L 221.18688 239.698286 
L 222.8832 239.698286 
L 223.01712 239.204571 
L 223.5528 239.204571 
L 223.73136 238.217143 
L 224.17776 238.217143 
L 224.31168 237.723429 
L 225.3384 237.723429 
L 225.47232 237.229714 
L 226.09728 237.229714 
L 226.2312 236.736 
L 226.9008 236.736 
L 227.03472 236.242286 
L 227.3472 236.242286 
L 227.52576 235.254857 
L 227.65968 235.254857 
L 227.7936 234.761143 
L 227.83824 234.761143 
L 227.97216 234.267429 
L 228.15072 234.267429 
L 228.28464 233.773714 
L 228.9096 233.773714 
L 229.04352 233.28 
L 230.33808 233.28 
L 230.472 232.786286 
L 230.9184 232.786286 
L 231.05232 232.292571 
L 232.65936 232.292571 
L 232.79328 231.798857 
L 234.13248 231.798857 
L 234.2664 231.305143 
L 234.4896 231.305143 
L 234.75744 229.330286 
L 235.02528 229.330286 
L 235.1592 228.836571 
L 235.42704 228.836571 
L 235.56096 228.342857 
L 236.90016 228.342857 
L 237.07872 227.355429 
L 237.12336 227.355429 
L 237.25728 226.861714 
L 237.70368 226.861714 
L 237.8376 226.368 
L 240.56064 226.368 
L 240.69456 225.874286 
L 241.1856 225.874286 
L 241.31952 225.380571 
L 243.01584 225.380571 
L 243.14976 224.886857 
L 244.04256 224.886857 
L 244.22112 223.899429 
L 247.07808 223.899429 
L 247.25664 222.912 
L 247.30128 222.912 
L 247.4352 222.418286 
L 247.8816 222.418286 
L 248.01552 221.924571 
L 248.14944 221.924571 
L 248.328 220.937143 
L 249.57792 220.937143 
L 249.71184 220.443429 
L 249.8904 220.443429 
L 250.02432 219.949714 
L 250.69392 219.949714 
L 250.82784 219.456 
L 251.4528 219.456 
L 251.58672 218.962286 
L 251.85456 218.962286 
L 252.03312 217.974857 
L 252.25632 217.974857 
L 252.39024 217.481143 
L 252.5688 217.481143 
L 252.70272 216.987429 
L 252.74736 216.987429 
L 252.88128 216.493714 
L 253.14912 216.493714 
L 253.28304 216 
L 253.95264 216 
L 254.08656 215.506286 
L 254.71152 215.506286 
L 254.84544 215.012571 
L 255.29184 215.012571 
L 255.42576 214.518857 
L 255.78288 214.518857 
L 255.9168 214.025143 
L 256.72032 214.025143 
L 256.85424 213.531429 
L 257.21136 213.531429 
L 257.34528 213.037714 
L 257.56848 213.037714 
L 257.7024 212.544 
L 257.79168 212.544 
L 257.9256 212.050286 
L 258.95232 212.050286 
L 259.13088 211.062857 
L 260.33616 211.062857 
L 260.47008 210.569143 
L 260.55936 210.569143 
L 260.73792 209.581714 
L 260.78256 209.581714 
L 260.91648 209.088 
L 261.40752 209.088 
L 261.54144 208.594286 
L 261.85392 208.594286 
L 261.98784 208.100571 
L 262.56816 208.100571 
L 262.70208 207.606857 
L 263.41632 207.606857 
L 263.55024 207.113143 
L 264.93408 207.113143 
L 265.068 206.619429 
L 265.91616 206.619429 
L 266.05008 206.125714 
L 269.66592 206.125714 
L 269.79984 205.632 
L 269.88912 205.632 
L 270.02304 205.138286 
L 272.03184 205.138286 
L 272.16576 204.644571 
L 272.2104 204.644571 
L 272.34432 204.150857 
L 272.83536 204.150857 
L 272.96928 203.657143 
L 273.19248 203.657143 
L 273.3264 203.163429 
L 274.26384 203.163429 
L 274.39776 202.669714 
L 275.3352 202.669714 
L 275.46912 202.176 
L 275.73696 202.176 
L 275.87088 201.682286 
L 276.228 201.682286 
L 276.36192 201.188571 
L 276.4512 201.188571 
L 276.58512 200.694857 
L 277.74576 200.694857 
L 277.87968 200.201143 
L 286.40592 200.201143 
L 286.53984 199.707429 
L 287.25408 199.707429 
L 287.388 199.213714 
L 287.65584 199.213714 
L 287.78976 198.72 
L 287.87904 198.72 
L 288.01296 198.226286 
L 289.30752 198.226286 
L 289.44144 197.732571 
L 289.53072 197.732571 
L 289.66464 197.238857 
L 290.69136 197.238857 
L 290.82528 196.745143 
L 291.45024 196.745143 
L 291.58416 196.251429 
L 292.11984 196.251429 
L 292.25376 195.757714 
L 292.5216 195.757714 
L 292.70016 194.770286 
L 293.14656 194.770286 
L 293.28048 194.276571 
L 293.50368 194.276571 
L 293.6376 193.782857 
L 293.77152 193.782857 
L 293.90544 193.289143 
L 294.17328 193.289143 
L 294.3072 192.795429 
L 294.66432 192.795429 
L 294.84288 191.808 
L 296.36064 191.808 
L 296.5392 190.820571 
L 297.56592 190.820571 
L 297.69984 190.326857 
L 298.81584 190.326857 
L 298.94976 189.833143 
L 302.83344 189.833143 
L 303.012 188.845714 
L 303.6816 188.845714 
L 303.81552 188.352 
L 304.52976 188.352 
L 304.66368 187.858286 
L 305.37792 187.858286 
L 305.51184 187.364571 
L 307.11888 187.364571 
L 307.2528 186.870857 
L 307.83312 186.870857 
L 307.96704 186.377143 
L 308.19024 186.377143 
L 308.41344 184.896 
L 309.12768 184.896 
L 309.30624 183.908571 
L 309.4848 183.908571 
L 309.61872 183.414857 
L 309.88656 183.414857 
L 310.02048 182.921143 
L 310.19904 182.921143 
L 310.33296 182.427429 
L 312.8328 182.427429 
L 312.96672 181.933714 
L 314.6184 181.933714 
L 314.75232 181.44 
L 316.76112 181.44 
L 316.89504 180.946286 
L 316.93968 180.946286 
L 317.0736 180.452571 
L 317.11824 180.452571 
L 317.25216 179.958857 
L 318.1896 179.958857 
L 318.32352 179.465143 
L 319.61808 179.465143 
L 319.752 178.971429 
L 323.41248 178.971429 
L 323.5464 178.477714 
L 323.7696 178.477714 
L 323.9928 176.996571 
L 324.70704 176.996571 
L 324.84096 176.502857 
L 325.1088 176.502857 
L 325.24272 176.009143 
L 326.18016 176.009143 
L 326.35872 175.021714 
L 326.40336 175.021714 
L 326.53728 174.528 
L 326.98368 174.528 
L 327.1176 174.034286 
L 330.4656 174.034286 
L 330.59952 173.540571 
L 332.60832 173.540571 
L 332.74224 173.046857 
L 333.09936 173.046857 
L 333.23328 172.553143 
L 333.32256 172.553143 
L 333.45648 172.059429 
L 336.35808 172.059429 
L 336.53664 171.072 
L 337.11696 171.072 
L 337.29552 170.084571 
L 337.47408 170.084571 
L 337.65264 169.097143 
L 338.81328 169.097143 
L 338.9472 168.603429 
L 340.7328 168.603429 
L 340.86672 168.109714 
L 341.13456 168.109714 
L 341.26848 167.616 
L 341.53632 167.616 
L 341.71488 166.628571 
L 341.8488 166.628571 
L 341.98272 166.134857 
L 342.02736 166.134857 
L 342.20592 165.147429 
L 342.33984 165.147429 
L 342.47376 164.653714 
L 343.94688 164.653714 
L 344.12544 163.666286 
L 344.34864 163.666286 
L 344.5272 162.678857 
L 345.06288 162.678857 
L 345.1968 162.185143 
L 345.28608 162.185143 
L 345.42 161.691429 
L 345.77712 161.691429 
L 345.91104 161.197714 
L 345.95568 161.197714 
L 346.0896 160.704 
L 346.80384 160.704 
L 346.93776 160.210286 
L 347.07168 160.210286 
L 347.2056 159.716571 
L 347.4288 159.716571 
L 347.56272 159.222857 
L 348.14304 159.222857 
L 348.3216 158.235429 
L 348.36624 158.235429 
L 348.50016 157.741714 
L 349.61616 157.741714 
L 349.75008 157.248 
L 349.83936 157.248 
L 349.97328 156.754286 
L 351.04464 156.754286 
L 351.2232 155.766857 
L 357.16032 155.766857 
L 357.29424 155.273143 
L 357.82992 155.273143 
L 357.96384 154.779429 
L 358.18704 154.779429 
L 358.32096 154.285714 
L 358.63344 154.285714 
L 358.76736 153.792 
L 359.88336 153.792 
L 360.01728 153.298286 
L 361.40112 153.298286 
L 361.66896 151.323429 
L 361.84752 151.323429 
L 362.02608 150.336 
L 362.20464 150.336 
L 362.33856 149.842286 
L 362.51712 149.842286 
L 362.65104 149.348571 
L 362.8296 149.348571 
L 362.96352 148.854857 
L 363.14208 148.854857 
L 363.276 148.361143 
L 363.63312 148.361143 
L 363.76704 147.867429 
L 365.01696 147.867429 
L 365.15088 147.373714 
L 365.508 147.373714 
L 365.64192 146.88 
L 365.7312 146.88 
L 365.86512 146.386286 
L 372.69504 146.386286 
L 372.8736 145.398857 
L 374.2128 145.398857 
L 374.34672 144.905143 
L 374.56992 144.905143 
L 374.70384 144.411429 
L 375.552 144.411429 
L 375.73056 143.424 
L 376.93584 143.424 
L 377.06976 142.930286 
L 377.15904 142.930286 
L 377.29296 142.436571 
L 379.97136 142.436571 
L 380.10528 141.942857 
L 381.8016 141.942857 
L 381.98016 140.955429 
L 382.42656 140.955429 
L 382.56048 140.461714 
L 383.94432 140.461714 
L 384.12288 139.474286 
L 385.64064 139.474286 
L 385.77456 138.980571 
L 386.84592 138.980571 
L 387.02448 137.993143 
L 387.56016 137.993143 
L 387.69408 137.499429 
L 387.87264 137.499429 
L 388.00656 137.005714 
L 388.09584 137.005714 
L 388.22976 136.512 
L 392.11344 136.512 
L 392.24736 136.018286 
L 393.80976 136.018286 
L 393.94368 135.524571 
L 394.65792 135.524571 
L 394.79184 135.030857 
L 395.50608 135.030857 
L 395.64 134.537143 
L 395.81856 134.537143 
L 395.95248 134.043429 
L 396.39888 134.043429 
L 396.5328 133.549714 
L 397.06848 133.549714 
L 397.29168 132.068571 
L 397.47024 132.068571 
L 397.6488 131.081143 
L 398.40768 131.081143 
L 398.5416 130.587429 
L 398.7648 130.587429 
L 398.89872 130.093714 
L 399.16656 130.093714 
L 399.30048 129.6 
L 399.38976 129.6 
L 399.52368 129.106286 
L 400.104 129.106286 
L 400.23792 128.612571 
L 401.4432 128.612571 
L 401.57712 128.118857 
L 402.1128 128.118857 
L 402.29136 127.131429 
L 403.36272 127.131429 
L 403.49664 126.637714 
L 403.8984 126.637714 
L 404.03232 126.144 
L 404.43408 126.144 
L 404.61264 125.156571 
L 405.9072 125.156571 
L 406.08576 124.169143 
L 406.21968 124.169143 
L 406.3536 123.675429 
L 406.71072 123.675429 
L 406.84464 123.181714 
L 407.11248 123.181714 
L 407.2464 122.688 
L 407.33568 122.688 
L 407.51424 121.700571 
L 410.86224 121.700571 
L 410.99616 121.206857 
L 411.21936 121.206857 
L 411.35328 120.713143 
L 412.20144 120.713143 
L 412.33536 120.219429 
L 412.78176 120.219429 
L 412.91568 119.725714 
L 413.09424 119.725714 
L 413.2728 118.738286 
L 414.03168 118.738286 
L 414.1656 118.244571 
L 416.08512 118.244571 
L 416.26368 117.257143 
L 416.35296 117.257143 
L 416.48688 116.763429 
L 418.71888 116.763429 
L 418.8528 116.269714 
L 419.12064 116.269714 
L 419.25456 115.776 
L 419.7456 115.776 
L 419.87952 115.282286 
L 420.68304 115.282286 
L 420.81696 114.788571 
L 422.6472 114.788571 
L 422.78112 114.294857 
L 425.63808 114.294857 
L 425.81664 113.307429 
L 425.86128 113.307429 
L 425.9952 112.813714 
L 426.93264 112.813714 
L 427.06656 112.32 
L 427.24512 112.32 
L 427.37904 111.826286 
L 430.0128 111.826286 
L 430.14672 111.332571 
L 430.41456 111.332571 
L 430.54848 110.838857 
L 430.81632 110.838857 
L 430.99488 109.851429 
L 431.48592 109.851429 
L 431.66448 108.864 
L 432.51264 108.864 
L 432.64656 108.370286 
L 433.85184 108.370286 
L 433.98576 107.876571 
L 434.34288 107.876571 
L 434.4768 107.382857 
L 435.05712 107.382857 
L 435.19104 106.889143 
L 435.28032 106.889143 
L 435.41424 106.395429 
L 436.12848 106.395429 
L 436.2624 105.901714 
L 436.35168 105.901714 
L 436.4856 105.408 
L 436.79808 105.408 
L 436.932 104.914286 
L 437.51232 104.914286 
L 437.69088 103.926857 
L 438.18192 103.926857 
L 438.31584 103.433143 
L 438.89616 103.433143 
L 439.03008 102.939429 
L 440.41392 102.939429 
L 440.54784 102.445714 
L 441.12816 102.445714 
L 441.26208 101.952 
L 442.64592 101.952 
L 442.77984 101.458286 
L 446.26176 101.458286 
L 446.39568 100.964571 
L 446.44032 100.964571 
L 446.57424 100.470857 
L 447.10992 100.470857 
L 447.24384 99.977143 
L 447.46704 99.977143 
L 447.60096 99.483429 
L 448.22592 99.483429 
L 448.35984 98.989714 
L 448.44912 98.989714 
L 448.58304 98.496 
L 449.16336 98.496 
L 449.29728 98.002286 
L 450.68112 98.002286 
L 450.81504 97.508571 
L 451.39536 97.508571 
L 451.52928 97.014857 
L 452.82384 97.014857 
L 452.95776 96.521143 
L 454.29696 96.521143 
L 454.43088 96.027429 
L 455.0112 96.027429 
L 455.14512 95.533714 
L 456.30576 95.533714 
L 456.43968 95.04 
L 459.07344 95.04 
L 459.20736 94.546286 
L 461.97504 94.546286 
L 462.1536 93.558857 
L 463.4928 93.558857 
L 463.62672 93.065143 
L 464.832 93.065143 
L 465.01056 92.077714 
L 466.21584 92.077714 
L 466.34976 91.584 
L 467.24256 91.584 
L 467.42112 90.596571 
L 467.82288 90.596571 
L 467.9568 90.102857 
L 469.25136 90.102857 
L 469.38528 89.609143 
L 471.0816 89.609143 
L 471.26016 88.621714 
L 472.51008 88.621714 
L 472.644 88.128 
L 473.35824 88.128 
L 473.49216 87.634286 
L 473.93856 87.634286 
L 474.07248 87.140571 
L 475.63488 87.140571 
L 475.7688 86.646857 
L 476.2152 86.646857 
L 476.34912 86.153143 
L 476.92944 86.153143 
L 477.108 85.165714 
L 477.15264 85.165714 
L 477.3312 84.178286 
L 480.09888 84.178286 
L 480.27744 83.190857 
L 483.93792 83.190857 
L 484.07184 82.697143 
L 485.67888 82.697143 
L 485.8128 82.203429 
L 486.34848 82.203429 
L 486.4824 81.709714 
L 486.83952 81.709714 
L 487.01808 80.722286 
L 487.68768 80.722286 
L 487.86624 79.734857 
L 488.44656 79.734857 
L 488.58048 79.241143 
L 488.66976 79.241143 
L 488.80368 78.747429 
L 491.3928 78.747429 
L 491.52672 78.253714 
L 493.1784 78.253714 
L 493.31232 77.76 
L 493.75872 77.76 
L 493.93728 76.772571 
L 494.65152 76.772571 
L 494.78544 76.278857 
L 495.1872 76.278857 
L 495.36576 75.291429 
L 495.49968 75.291429 
L 495.6336 74.797714 
L 495.81216 74.797714 
L 495.94608 74.304 
L 499.47264 74.304 
L 499.60656 73.810286 
L 501.70464 73.810286 
L 501.83856 73.316571 
L 501.97248 73.316571 
L 502.1064 72.822857 
L 502.3296 72.822857 
L 502.59744 70.848 
L 502.86528 70.848 
L 502.9992 70.354286 
L 503.26704 70.354286 
L 503.40096 69.860571 
L 503.49024 69.860571 
L 503.62416 69.366857 
L 504.1152 69.366857 
L 504.24912 68.873143 
L 509.0256 68.873143 
L 509.15952 68.379429 
L 511.65936 68.379429 
L 511.79328 67.885714 
L 514.91808 67.885714 
L 515.09664 66.898286 
L 515.14128 66.898286 
L 515.2752 66.404571 
L 515.9448 66.404571 
L 516.12336 65.417143 
L 518.4 65.417143 
L 518.4 65.417143 
" style="fill:none;stroke:#0000ff;stroke-linecap:square;"/>
   </g>
   <g id="patch_3">
    <path d="M 72 388.8 
L 72 43.2 
" style="fill:none;stroke:#000000;stroke-linecap:square;stroke-linejoin:miter;"/>
   </g>
   <g id="patch_4">
    <path d="M 72 388.8 
L 518.4 388.8 
" style="fill:none;stroke:#000000;stroke-linecap:square;stroke-linejoin:miter;"/>
   </g>
   <g id="patch_5">
    <path d="M 72 43.2 
L 518.4 43.2 
" style="fill:none;stroke:#000000;stroke-linecap:square;stroke-linejoin:miter;"/>
   </g>
   <g id="patch_6">
    <path d="M 518.4 388.8 
L 518.4 43.2 
" style="fill:none;stroke:#000000;stroke-linecap:square;stroke-linejoin:miter;"/>
   </g>
   <g id="matplotlib.axis_1">
    <g id="xtick_1">
     <g id="line2d_2">
      <defs>
       <path d="M 0 0 
L 0 -4 
" id="mc96fc8902a" style="stroke:#000000;stroke-width:0.5;"/>
      </defs>
      <g>
       <use style="stroke:#000000;stroke-width:0.5;" x="72.0" xlink:href="#mc96fc8902a" y="388.8"/>
      </g>
     </g>
     <g id="line2d_3">
      <defs>
       <path d="M 0 0 
L 0 4 
" id="md939de5413" style="stroke:#000000;stroke-width:0.5;"/>
      </defs>
      <g>
       <use style="stroke:#000000;stroke-width:0.5;" x="72.0" xlink:href="#md939de5413" y="43.2"/>
      </g>
     </g>
     <g id="text_1">
      <!-- 0 -->
      <defs>
       <path d="M 31.78125 66.40625 
Q 24.171875 66.40625 20.328125 58.90625 
Q 16.5 51.421875 16.5 36.375 
Q 16.5 21.390625 20.328125 13.890625 
Q 24.171875 6.390625 31.78125 6.390625 
Q 39.453125 6.390625 43.28125 13.890625 
Q 47.125 21.390625 47.125 36.375 
Q 47.125 51.421875 43.28125 58.90625 
Q 39.453125 66.40625 31.78125 66.40625 
M 31.78125 74.21875 
Q 44.046875 74.21875 50.515625 64.515625 
Q 56.984375 54.828125 56.984375 36.375 
Q 56.984375 17.96875 50.515625 8.265625 
Q 44.046875 -1.421875 31.78125 -1.421875 
Q 19.53125 -1.421875 13.0625 8.265625 
Q 6.59375 17.96875 6.59375 36.375 
Q 6.59375 54.828125 13.0625 64.515625 
Q 19.53125 74.21875 31.78125 74.21875 
" id="BitstreamVeraSans-Roman-30"/>
      </defs>
      <g transform="translate(68.1825 401.918125)scale(0.12 -0.12)">
       <use xlink:href="#BitstreamVeraSans-Roman-30"/>
      </g>
     </g>
    </g>
    <g id="xtick_2">
     <g id="line2d_4">
      <g>
       <use style="stroke:#000000;stroke-width:0.5;" x="161.28" xlink:href="#mc96fc8902a" y="388.8"/>
      </g>
     </g>
     <g id="line2d_5">
      <g>
       <use style="stroke:#000000;stroke-width:0.5;" x="161.28" xlink:href="#md939de5413" y="43.2"/>
      </g>
     </g>
     <g id="text_2">
      <!-- 2000 -->
      <defs>
       <path d="M 19.1875 8.296875 
L 53.609375 8.296875 
L 53.609375 0 
L 7.328125 0 
L 7.328125 8.296875 
Q 12.9375 14.109375 22.625 23.890625 
Q 32.328125 33.6875 34.8125 36.53125 
Q 39.546875 41.84375 41.421875 45.53125 
Q 43.3125 49.21875 43.3125 52.78125 
Q 43.3125 58.59375 39.234375 62.25 
Q 35.15625 65.921875 28.609375 65.921875 
Q 23.96875 65.921875 18.8125 64.3125 
Q 13.671875 62.703125 7.8125 59.421875 
L 7.8125 69.390625 
Q 13.765625 71.78125 18.9375 73 
Q 24.125 74.21875 28.421875 74.21875 
Q 39.75 74.21875 46.484375 68.546875 
Q 53.21875 62.890625 53.21875 53.421875 
Q 53.21875 48.921875 51.53125 44.890625 
Q 49.859375 40.875 45.40625 35.40625 
Q 44.1875 33.984375 37.640625 27.21875 
Q 31.109375 20.453125 19.1875 8.296875 
" id="BitstreamVeraSans-Roman-32"/>
      </defs>
      <g transform="translate(146.01 401.918125)scale(0.12 -0.12)">
       <use xlink:href="#BitstreamVeraSans-Roman-32"/>
       <use x="63.623046875" xlink:href="#BitstreamVeraSans-Roman-30"/>
       <use x="127.24609375" xlink:href="#BitstreamVeraSans-Roman-30"/>
       <use x="190.869140625" xlink:href="#BitstreamVeraSans-Roman-30"/>
      </g>
     </g>
    </g>
    <g id="xtick_3">
     <g id="line2d_6">
      <g>
       <use style="stroke:#000000;stroke-width:0.5;" x="250.56" xlink:href="#mc96fc8902a" y="388.8"/>
      </g>
     </g>
     <g id="line2d_7">
      <g>
       <use style="stroke:#000000;stroke-width:0.5;" x="250.56" xlink:href="#md939de5413" y="43.2"/>
      </g>
     </g>
     <g id="text_3">
      <!-- 4000 -->
      <defs>
       <path d="M 37.796875 64.3125 
L 12.890625 25.390625 
L 37.796875 25.390625 
z
M 35.203125 72.90625 
L 47.609375 72.90625 
L 47.609375 25.390625 
L 58.015625 25.390625 
L 58.015625 17.1875 
L 47.609375 17.1875 
L 47.609375 0 
L 37.796875 0 
L 37.796875 17.1875 
L 4.890625 17.1875 
L 4.890625 26.703125 
z
" id="BitstreamVeraSans-Roman-34"/>
      </defs>
      <g transform="translate(235.29 401.918125)scale(0.12 -0.12)">
       <use xlink:href="#BitstreamVeraSans-Roman-34"/>
       <use x="63.623046875" xlink:href="#BitstreamVeraSans-Roman-30"/>
       <use x="127.24609375" xlink:href="#BitstreamVeraSans-Roman-30"/>
       <use x="190.869140625" xlink:href="#BitstreamVeraSans-Roman-30"/>
      </g>
     </g>
    </g>
    <g id="xtick_4">
     <g id="line2d_8">
      <g>
       <use style="stroke:#000000;stroke-width:0.5;" x="339.84" xlink:href="#mc96fc8902a" y="388.8"/>
      </g>
     </g>
     <g id="line2d_9">
      <g>
       <use style="stroke:#000000;stroke-width:0.5;" x="339.84" xlink:href="#md939de5413" y="43.2"/>
      </g>
     </g>
     <g id="text_4">
      <!-- 6000 -->
      <defs>
       <path d="M 33.015625 40.375 
Q 26.375 40.375 22.484375 35.828125 
Q 18.609375 31.296875 18.609375 23.390625 
Q 18.609375 15.53125 22.484375 10.953125 
Q 26.375 6.390625 33.015625 6.390625 
Q 39.65625 6.390625 43.53125 10.953125 
Q 47.40625 15.53125 47.40625 23.390625 
Q 47.40625 31.296875 43.53125 35.828125 
Q 39.65625 40.375 33.015625 40.375 
M 52.59375 71.296875 
L 52.59375 62.3125 
Q 48.875 64.0625 45.09375 64.984375 
Q 41.3125 65.921875 37.59375 65.921875 
Q 27.828125 65.921875 22.671875 59.328125 
Q 17.53125 52.734375 16.796875 39.40625 
Q 19.671875 43.65625 24.015625 45.921875 
Q 28.375 48.1875 33.59375 48.1875 
Q 44.578125 48.1875 50.953125 41.515625 
Q 57.328125 34.859375 57.328125 23.390625 
Q 57.328125 12.15625 50.6875 5.359375 
Q 44.046875 -1.421875 33.015625 -1.421875 
Q 20.359375 -1.421875 13.671875 8.265625 
Q 6.984375 17.96875 6.984375 36.375 
Q 6.984375 53.65625 15.1875 63.9375 
Q 23.390625 74.21875 37.203125 74.21875 
Q 40.921875 74.21875 44.703125 73.484375 
Q 48.484375 72.75 52.59375 71.296875 
" id="BitstreamVeraSans-Roman-36"/>
      </defs>
      <g transform="translate(324.57 401.918125)scale(0.12 -0.12)">
       <use xlink:href="#BitstreamVeraSans-Roman-36"/>
       <use x="63.623046875" xlink:href="#BitstreamVeraSans-Roman-30"/>
       <use x="127.24609375" xlink:href="#BitstreamVeraSans-Roman-30"/>
       <use x="190.869140625" xlink:href="#BitstreamVeraSans-Roman-30"/>
      </g>
     </g>
    </g>
    <g id="xtick_5">
     <g id="line2d_10">
      <g>
       <use style="stroke:#000000;stroke-width:0.5;" x="429.12" xlink:href="#mc96fc8902a" y="388.8"/>
      </g>
     </g>
     <g id="line2d_11">
      <g>
       <use style="stroke:#000000;stroke-width:0.5;" x="429.12" xlink:href="#md939de5413" y="43.2"/>
      </g>
     </g>
     <g id="text_5">
      <!-- 8000 -->
      <defs>
       <path d="M 31.78125 34.625 
Q 24.75 34.625 20.71875 30.859375 
Q 16.703125 27.09375 16.703125 20.515625 
Q 16.703125 13.921875 20.71875 10.15625 
Q 24.75 6.390625 31.78125 6.390625 
Q 38.8125 6.390625 42.859375 10.171875 
Q 46.921875 13.96875 46.921875 20.515625 
Q 46.921875 27.09375 42.890625 30.859375 
Q 38.875 34.625 31.78125 34.625 
M 21.921875 38.8125 
Q 15.578125 40.375 12.03125 44.71875 
Q 8.5 49.078125 8.5 55.328125 
Q 8.5 64.0625 14.71875 69.140625 
Q 20.953125 74.21875 31.78125 74.21875 
Q 42.671875 74.21875 48.875 69.140625 
Q 55.078125 64.0625 55.078125 55.328125 
Q 55.078125 49.078125 51.53125 44.71875 
Q 48 40.375 41.703125 38.8125 
Q 48.828125 37.15625 52.796875 32.3125 
Q 56.78125 27.484375 56.78125 20.515625 
Q 56.78125 9.90625 50.3125 4.234375 
Q 43.84375 -1.421875 31.78125 -1.421875 
Q 19.734375 -1.421875 13.25 4.234375 
Q 6.78125 9.90625 6.78125 20.515625 
Q 6.78125 27.484375 10.78125 32.3125 
Q 14.796875 37.15625 21.921875 38.8125 
M 18.3125 54.390625 
Q 18.3125 48.734375 21.84375 45.5625 
Q 25.390625 42.390625 31.78125 42.390625 
Q 38.140625 42.390625 41.71875 45.5625 
Q 45.3125 48.734375 45.3125 54.390625 
Q 45.3125 60.0625 41.71875 63.234375 
Q 38.140625 66.40625 31.78125 66.40625 
Q 25.390625 66.40625 21.84375 63.234375 
Q 18.3125 60.0625 18.3125 54.390625 
" id="BitstreamVeraSans-Roman-38"/>
      </defs>
      <g transform="translate(413.85 401.918125)scale(0.12 -0.12)">
       <use xlink:href="#BitstreamVeraSans-Roman-38"/>
       <use x="63.623046875" xlink:href="#BitstreamVeraSans-Roman-30"/>
       <use x="127.24609375" xlink:href="#BitstreamVeraSans-Roman-30"/>
       <use x="190.869140625" xlink:href="#BitstreamVeraSans-Roman-30"/>
      </g>
     </g>
    </g>
    <g id="xtick_6">
     <g id="line2d_12">
      <g>
       <use style="stroke:#000000;stroke-width:0.5;" x="518.4" xlink:href="#mc96fc8902a" y="388.8"/>
      </g>
     </g>
     <g id="line2d_13">
      <g>
       <use style="stroke:#000000;stroke-width:0.5;" x="518.4" xlink:href="#md939de5413" y="43.2"/>
      </g>
     </g>
     <g id="text_6">
      <!-- 10000 -->
      <defs>
       <path d="M 12.40625 8.296875 
L 28.515625 8.296875 
L 28.515625 63.921875 
L 10.984375 60.40625 
L 10.984375 69.390625 
L 28.421875 72.90625 
L 38.28125 72.90625 
L 38.28125 8.296875 
L 54.390625 8.296875 
L 54.390625 0 
L 12.40625 0 
z
" id="BitstreamVeraSans-Roman-31"/>
      </defs>
      <g transform="translate(499.3125 401.918125)scale(0.12 -0.12)">
       <use xlink:href="#BitstreamVeraSans-Roman-31"/>
       <use x="63.623046875" xlink:href="#BitstreamVeraSans-Roman-30"/>
       <use x="127.24609375" xlink:href="#BitstreamVeraSans-Roman-30"/>
       <use x="190.869140625" xlink:href="#BitstreamVeraSans-Roman-30"/>
       <use x="254.4921875" xlink:href="#BitstreamVeraSans-Roman-30"/>
      </g>
     </g>
    </g>
    <g id="text_7">
     <!-- # of examples -->
     <defs>
      <path d="M 54.890625 54.6875 
L 35.109375 28.078125 
L 55.90625 0 
L 45.3125 0 
L 29.390625 21.484375 
L 13.484375 0 
L 2.875 0 
L 24.125 28.609375 
L 4.6875 54.6875 
L 15.28125 54.6875 
L 29.78125 35.203125 
L 44.28125 54.6875 
z
" id="BitstreamVeraSans-Roman-78"/>
      <path d="M 52 44.1875 
Q 55.375 50.25 60.0625 53.125 
Q 64.75 56 71.09375 56 
Q 79.640625 56 84.28125 50.015625 
Q 88.921875 44.046875 88.921875 33.015625 
L 88.921875 0 
L 79.890625 0 
L 79.890625 32.71875 
Q 79.890625 40.578125 77.09375 44.375 
Q 74.3125 48.1875 68.609375 48.1875 
Q 61.625 48.1875 57.5625 43.546875 
Q 53.515625 38.921875 53.515625 30.90625 
L 53.515625 0 
L 44.484375 0 
L 44.484375 32.71875 
Q 44.484375 40.625 41.703125 44.40625 
Q 38.921875 48.1875 33.109375 48.1875 
Q 26.21875 48.1875 22.15625 43.53125 
Q 18.109375 38.875 18.109375 30.90625 
L 18.109375 0 
L 9.078125 0 
L 9.078125 54.6875 
L 18.109375 54.6875 
L 18.109375 46.1875 
Q 21.1875 51.21875 25.484375 53.609375 
Q 29.78125 56 35.6875 56 
Q 41.65625 56 45.828125 52.96875 
Q 50 49.953125 52 44.1875 
" id="BitstreamVeraSans-Roman-6d"/>
      <path d="M 51.125 44 
L 36.921875 44 
L 32.8125 27.6875 
L 47.125 27.6875 
z
M 43.796875 71.78125 
L 38.71875 51.515625 
L 52.984375 51.515625 
L 58.109375 71.78125 
L 65.921875 71.78125 
L 60.890625 51.515625 
L 76.125 51.515625 
L 76.125 44 
L 58.984375 44 
L 54.984375 27.6875 
L 70.515625 27.6875 
L 70.515625 20.21875 
L 53.078125 20.21875 
L 48 0 
L 40.1875 0 
L 45.21875 20.21875 
L 30.90625 20.21875 
L 25.875 0 
L 18.015625 0 
L 23.09375 20.21875 
L 7.71875 20.21875 
L 7.71875 27.6875 
L 24.90625 27.6875 
L 29 44 
L 13.28125 44 
L 13.28125 51.515625 
L 30.90625 51.515625 
L 35.890625 71.78125 
z
" id="BitstreamVeraSans-Roman-23"/>
      <path id="BitstreamVeraSans-Roman-20"/>
      <path d="M 34.28125 27.484375 
Q 23.390625 27.484375 19.1875 25 
Q 14.984375 22.515625 14.984375 16.5 
Q 14.984375 11.71875 18.140625 8.90625 
Q 21.296875 6.109375 26.703125 6.109375 
Q 34.1875 6.109375 38.703125 11.40625 
Q 43.21875 16.703125 43.21875 25.484375 
L 43.21875 27.484375 
z
M 52.203125 31.203125 
L 52.203125 0 
L 43.21875 0 
L 43.21875 8.296875 
Q 40.140625 3.328125 35.546875 0.953125 
Q 30.953125 -1.421875 24.3125 -1.421875 
Q 15.921875 -1.421875 10.953125 3.296875 
Q 6 8.015625 6 15.921875 
Q 6 25.140625 12.171875 29.828125 
Q 18.359375 34.515625 30.609375 34.515625 
L 43.21875 34.515625 
L 43.21875 35.40625 
Q 43.21875 41.609375 39.140625 45 
Q 35.0625 48.390625 27.6875 48.390625 
Q 23 48.390625 18.546875 47.265625 
Q 14.109375 46.140625 10.015625 43.890625 
L 10.015625 52.203125 
Q 14.9375 54.109375 19.578125 55.046875 
Q 24.21875 56 28.609375 56 
Q 40.484375 56 46.34375 49.84375 
Q 52.203125 43.703125 52.203125 31.203125 
" id="BitstreamVeraSans-Roman-61"/>
      <path d="M 30.609375 48.390625 
Q 23.390625 48.390625 19.1875 42.75 
Q 14.984375 37.109375 14.984375 27.296875 
Q 14.984375 17.484375 19.15625 11.84375 
Q 23.34375 6.203125 30.609375 6.203125 
Q 37.796875 6.203125 41.984375 11.859375 
Q 46.1875 17.53125 46.1875 27.296875 
Q 46.1875 37.015625 41.984375 42.703125 
Q 37.796875 48.390625 30.609375 48.390625 
M 30.609375 56 
Q 42.328125 56 49.015625 48.375 
Q 55.71875 40.765625 55.71875 27.296875 
Q 55.71875 13.875 49.015625 6.21875 
Q 42.328125 -1.421875 30.609375 -1.421875 
Q 18.84375 -1.421875 12.171875 6.21875 
Q 5.515625 13.875 5.515625 27.296875 
Q 5.515625 40.765625 12.171875 48.375 
Q 18.84375 56 30.609375 56 
" id="BitstreamVeraSans-Roman-6f"/>
      <path d="M 44.28125 53.078125 
L 44.28125 44.578125 
Q 40.484375 46.53125 36.375 47.5 
Q 32.28125 48.484375 27.875 48.484375 
Q 21.1875 48.484375 17.84375 46.4375 
Q 14.5 44.390625 14.5 40.28125 
Q 14.5 37.15625 16.890625 35.375 
Q 19.28125 33.59375 26.515625 31.984375 
L 29.59375 31.296875 
Q 39.15625 29.25 43.1875 25.515625 
Q 47.21875 21.78125 47.21875 15.09375 
Q 47.21875 7.46875 41.1875 3.015625 
Q 35.15625 -1.421875 24.609375 -1.421875 
Q 20.21875 -1.421875 15.453125 -0.5625 
Q 10.6875 0.296875 5.421875 2 
L 5.421875 11.28125 
Q 10.40625 8.6875 15.234375 7.390625 
Q 20.0625 6.109375 24.8125 6.109375 
Q 31.15625 6.109375 34.5625 8.28125 
Q 37.984375 10.453125 37.984375 14.40625 
Q 37.984375 18.0625 35.515625 20.015625 
Q 33.0625 21.96875 24.703125 23.78125 
L 21.578125 24.515625 
Q 13.234375 26.265625 9.515625 29.90625 
Q 5.8125 33.546875 5.8125 39.890625 
Q 5.8125 47.609375 11.28125 51.796875 
Q 16.75 56 26.8125 56 
Q 31.78125 56 36.171875 55.265625 
Q 40.578125 54.546875 44.28125 53.078125 
" id="BitstreamVeraSans-Roman-73"/>
      <path d="M 37.109375 75.984375 
L 37.109375 68.5 
L 28.515625 68.5 
Q 23.6875 68.5 21.796875 66.546875 
Q 19.921875 64.59375 19.921875 59.515625 
L 19.921875 54.6875 
L 34.71875 54.6875 
L 34.71875 47.703125 
L 19.921875 47.703125 
L 19.921875 0 
L 10.890625 0 
L 10.890625 47.703125 
L 2.296875 47.703125 
L 2.296875 54.6875 
L 10.890625 54.6875 
L 10.890625 58.5 
Q 10.890625 67.625 15.140625 71.796875 
Q 19.390625 75.984375 28.609375 75.984375 
z
" id="BitstreamVeraSans-Roman-66"/>
      <path d="M 56.203125 29.59375 
L 56.203125 25.203125 
L 14.890625 25.203125 
Q 15.484375 15.921875 20.484375 11.0625 
Q 25.484375 6.203125 34.421875 6.203125 
Q 39.59375 6.203125 44.453125 7.46875 
Q 49.3125 8.734375 54.109375 11.28125 
L 54.109375 2.78125 
Q 49.265625 0.734375 44.1875 -0.34375 
Q 39.109375 -1.421875 33.890625 -1.421875 
Q 20.796875 -1.421875 13.15625 6.1875 
Q 5.515625 13.8125 5.515625 26.8125 
Q 5.515625 40.234375 12.765625 48.109375 
Q 20.015625 56 32.328125 56 
Q 43.359375 56 49.78125 48.890625 
Q 56.203125 41.796875 56.203125 29.59375 
M 47.21875 32.234375 
Q 47.125 39.59375 43.09375 43.984375 
Q 39.0625 48.390625 32.421875 48.390625 
Q 24.90625 48.390625 20.390625 44.140625 
Q 15.875 39.890625 15.1875 32.171875 
z
" id="BitstreamVeraSans-Roman-65"/>
      <path d="M 18.109375 8.203125 
L 18.109375 -20.796875 
L 9.078125 -20.796875 
L 9.078125 54.6875 
L 18.109375 54.6875 
L 18.109375 46.390625 
Q 20.953125 51.265625 25.265625 53.625 
Q 29.59375 56 35.59375 56 
Q 45.5625 56 51.78125 48.09375 
Q 58.015625 40.1875 58.015625 27.296875 
Q 58.015625 14.40625 51.78125 6.484375 
Q 45.5625 -1.421875 35.59375 -1.421875 
Q 29.59375 -1.421875 25.265625 0.953125 
Q 20.953125 3.328125 18.109375 8.203125 
M 48.6875 27.296875 
Q 48.6875 37.203125 44.609375 42.84375 
Q 40.53125 48.484375 33.40625 48.484375 
Q 26.265625 48.484375 22.1875 42.84375 
Q 18.109375 37.203125 18.109375 27.296875 
Q 18.109375 17.390625 22.1875 11.75 
Q 26.265625 6.109375 33.40625 6.109375 
Q 40.53125 6.109375 44.609375 11.75 
Q 48.6875 17.390625 48.6875 27.296875 
" id="BitstreamVeraSans-Roman-70"/>
      <path d="M 9.421875 75.984375 
L 18.40625 75.984375 
L 18.40625 0 
L 9.421875 0 
z
" id="BitstreamVeraSans-Roman-6c"/>
     </defs>
     <g transform="translate(251.518125 418.531875)scale(0.12 -0.12)">
      <use xlink:href="#BitstreamVeraSans-Roman-23"/>
      <use x="83.7890625" xlink:href="#BitstreamVeraSans-Roman-20"/>
      <use x="115.576171875" xlink:href="#BitstreamVeraSans-Roman-6f"/>
      <use x="176.7578125" xlink:href="#BitstreamVeraSans-Roman-66"/>
      <use x="211.962890625" xlink:href="#BitstreamVeraSans-Roman-20"/>
      <use x="243.75" xlink:href="#BitstreamVeraSans-Roman-65"/>
      <use x="305.2578125" xlink:href="#BitstreamVeraSans-Roman-78"/>
      <use x="364.4375" xlink:href="#BitstreamVeraSans-Roman-61"/>
      <use x="425.716796875" xlink:href="#BitstreamVeraSans-Roman-6d"/>
      <use x="523.12890625" xlink:href="#BitstreamVeraSans-Roman-70"/>
      <use x="586.60546875" xlink:href="#BitstreamVeraSans-Roman-6c"/>
      <use x="614.388671875" xlink:href="#BitstreamVeraSans-Roman-65"/>
      <use x="675.912109375" xlink:href="#BitstreamVeraSans-Roman-73"/>
     </g>
    </g>
   </g>
   <g id="matplotlib.axis_2">
    <g id="ytick_1">
     <g id="line2d_14">
      <defs>
       <path d="M 0 0 
L 4 0 
" id="m82bcdade70" style="stroke:#000000;stroke-width:0.5;"/>
      </defs>
      <g>
       <use style="stroke:#000000;stroke-width:0.5;" x="72.0" xlink:href="#m82bcdade70" y="388.8"/>
      </g>
     </g>
     <g id="line2d_15">
      <defs>
       <path d="M 0 0 
L -4 0 
" id="mfbf3d6f41a" style="stroke:#000000;stroke-width:0.5;"/>
      </defs>
      <g>
       <use style="stroke:#000000;stroke-width:0.5;" x="518.4" xlink:href="#mfbf3d6f41a" y="388.8"/>
      </g>
     </g>
     <g id="text_8">
      <!-- 0 -->
      <g transform="translate(60.365 392.11125)scale(0.12 -0.12)">
       <use xlink:href="#BitstreamVeraSans-Roman-30"/>
      </g>
     </g>
    </g>
    <g id="ytick_2">
     <g id="line2d_16">
      <g>
       <use style="stroke:#000000;stroke-width:0.5;" x="72.0" xlink:href="#m82bcdade70" y="339.428571429"/>
      </g>
     </g>
     <g id="line2d_17">
      <g>
       <use style="stroke:#000000;stroke-width:0.5;" x="518.4" xlink:href="#mfbf3d6f41a" y="339.428571429"/>
      </g>
     </g>
     <g id="text_9">
      <!-- 100 -->
      <g transform="translate(45.095 342.739821429)scale(0.12 -0.12)">
       <use xlink:href="#BitstreamVeraSans-Roman-31"/>
       <use x="63.623046875" xlink:href="#BitstreamVeraSans-Roman-30"/>
       <use x="127.24609375" xlink:href="#BitstreamVeraSans-Roman-30"/>
      </g>
     </g>
    </g>
    <g id="ytick_3">
     <g id="line2d_18">
      <g>
       <use style="stroke:#000000;stroke-width:0.5;" x="72.0" xlink:href="#m82bcdade70" y="290.057142857"/>
      </g>
     </g>
     <g id="line2d_19">
      <g>
       <use style="stroke:#000000;stroke-width:0.5;" x="518.4" xlink:href="#mfbf3d6f41a" y="290.057142857"/>
      </g>
     </g>
     <g id="text_10">
      <!-- 200 -->
      <g transform="translate(45.095 293.368392857)scale(0.12 -0.12)">
       <use xlink:href="#BitstreamVeraSans-Roman-32"/>
       <use x="63.623046875" xlink:href="#BitstreamVeraSans-Roman-30"/>
       <use x="127.24609375" xlink:href="#BitstreamVeraSans-Roman-30"/>
      </g>
     </g>
    </g>
    <g id="ytick_4">
     <g id="line2d_20">
      <g>
       <use style="stroke:#000000;stroke-width:0.5;" x="72.0" xlink:href="#m82bcdade70" y="240.685714286"/>
      </g>
     </g>
     <g id="line2d_21">
      <g>
       <use style="stroke:#000000;stroke-width:0.5;" x="518.4" xlink:href="#mfbf3d6f41a" y="240.685714286"/>
      </g>
     </g>
     <g id="text_11">
      <!-- 300 -->
      <defs>
       <path d="M 40.578125 39.3125 
Q 47.65625 37.796875 51.625 33 
Q 55.609375 28.21875 55.609375 21.1875 
Q 55.609375 10.40625 48.1875 4.484375 
Q 40.765625 -1.421875 27.09375 -1.421875 
Q 22.515625 -1.421875 17.65625 -0.515625 
Q 12.796875 0.390625 7.625 2.203125 
L 7.625 11.71875 
Q 11.71875 9.328125 16.59375 8.109375 
Q 21.484375 6.890625 26.8125 6.890625 
Q 36.078125 6.890625 40.9375 10.546875 
Q 45.796875 14.203125 45.796875 21.1875 
Q 45.796875 27.640625 41.28125 31.265625 
Q 36.765625 34.90625 28.71875 34.90625 
L 20.21875 34.90625 
L 20.21875 43.015625 
L 29.109375 43.015625 
Q 36.375 43.015625 40.234375 45.921875 
Q 44.09375 48.828125 44.09375 54.296875 
Q 44.09375 59.90625 40.109375 62.90625 
Q 36.140625 65.921875 28.71875 65.921875 
Q 24.65625 65.921875 20.015625 65.03125 
Q 15.375 64.15625 9.8125 62.3125 
L 9.8125 71.09375 
Q 15.4375 72.65625 20.34375 73.4375 
Q 25.25 74.21875 29.59375 74.21875 
Q 40.828125 74.21875 47.359375 69.109375 
Q 53.90625 64.015625 53.90625 55.328125 
Q 53.90625 49.265625 50.4375 45.09375 
Q 46.96875 40.921875 40.578125 39.3125 
" id="BitstreamVeraSans-Roman-33"/>
      </defs>
      <g transform="translate(45.095 243.996964286)scale(0.12 -0.12)">
       <use xlink:href="#BitstreamVeraSans-Roman-33"/>
       <use x="63.623046875" xlink:href="#BitstreamVeraSans-Roman-30"/>
       <use x="127.24609375" xlink:href="#BitstreamVeraSans-Roman-30"/>
      </g>
     </g>
    </g>
    <g id="ytick_5">
     <g id="line2d_22">
      <g>
       <use style="stroke:#000000;stroke-width:0.5;" x="72.0" xlink:href="#m82bcdade70" y="191.314285714"/>
      </g>
     </g>
     <g id="line2d_23">
      <g>
       <use style="stroke:#000000;stroke-width:0.5;" x="518.4" xlink:href="#mfbf3d6f41a" y="191.314285714"/>
      </g>
     </g>
     <g id="text_12">
      <!-- 400 -->
      <g transform="translate(45.095 194.625535714)scale(0.12 -0.12)">
       <use xlink:href="#BitstreamVeraSans-Roman-34"/>
       <use x="63.623046875" xlink:href="#BitstreamVeraSans-Roman-30"/>
       <use x="127.24609375" xlink:href="#BitstreamVeraSans-Roman-30"/>
      </g>
     </g>
    </g>
    <g id="ytick_6">
     <g id="line2d_24">
      <g>
       <use style="stroke:#000000;stroke-width:0.5;" x="72.0" xlink:href="#m82bcdade70" y="141.942857143"/>
      </g>
     </g>
     <g id="line2d_25">
      <g>
       <use style="stroke:#000000;stroke-width:0.5;" x="518.4" xlink:href="#mfbf3d6f41a" y="141.942857143"/>
      </g>
     </g>
     <g id="text_13">
      <!-- 500 -->
      <defs>
       <path d="M 10.796875 72.90625 
L 49.515625 72.90625 
L 49.515625 64.59375 
L 19.828125 64.59375 
L 19.828125 46.734375 
Q 21.96875 47.46875 24.109375 47.828125 
Q 26.265625 48.1875 28.421875 48.1875 
Q 40.625 48.1875 47.75 41.5 
Q 54.890625 34.8125 54.890625 23.390625 
Q 54.890625 11.625 47.5625 5.09375 
Q 40.234375 -1.421875 26.90625 -1.421875 
Q 22.3125 -1.421875 17.546875 -0.640625 
Q 12.796875 0.140625 7.71875 1.703125 
L 7.71875 11.625 
Q 12.109375 9.234375 16.796875 8.0625 
Q 21.484375 6.890625 26.703125 6.890625 
Q 35.15625 6.890625 40.078125 11.328125 
Q 45.015625 15.765625 45.015625 23.390625 
Q 45.015625 31 40.078125 35.4375 
Q 35.15625 39.890625 26.703125 39.890625 
Q 22.75 39.890625 18.8125 39.015625 
Q 14.890625 38.140625 10.796875 36.28125 
z
" id="BitstreamVeraSans-Roman-35"/>
      </defs>
      <g transform="translate(45.095 145.254107143)scale(0.12 -0.12)">
       <use xlink:href="#BitstreamVeraSans-Roman-35"/>
       <use x="63.623046875" xlink:href="#BitstreamVeraSans-Roman-30"/>
       <use x="127.24609375" xlink:href="#BitstreamVeraSans-Roman-30"/>
      </g>
     </g>
    </g>
    <g id="ytick_7">
     <g id="line2d_26">
      <g>
       <use style="stroke:#000000;stroke-width:0.5;" x="72.0" xlink:href="#m82bcdade70" y="92.5714285714"/>
      </g>
     </g>
     <g id="line2d_27">
      <g>
       <use style="stroke:#000000;stroke-width:0.5;" x="518.4" xlink:href="#mfbf3d6f41a" y="92.5714285714"/>
      </g>
     </g>
     <g id="text_14">
      <!-- 600 -->
      <g transform="translate(45.095 95.8826785714)scale(0.12 -0.12)">
       <use xlink:href="#BitstreamVeraSans-Roman-36"/>
       <use x="63.623046875" xlink:href="#BitstreamVeraSans-Roman-30"/>
       <use x="127.24609375" xlink:href="#BitstreamVeraSans-Roman-30"/>
      </g>
     </g>
    </g>
    <g id="ytick_8">
     <g id="line2d_28">
      <g>
       <use style="stroke:#000000;stroke-width:0.5;" x="72.0" xlink:href="#m82bcdade70" y="43.2"/>
      </g>
     </g>
     <g id="line2d_29">
      <g>
       <use style="stroke:#000000;stroke-width:0.5;" x="518.4" xlink:href="#mfbf3d6f41a" y="43.2"/>
      </g>
     </g>
     <g id="text_15">
      <!-- 700 -->
      <defs>
       <path d="M 8.203125 72.90625 
L 55.078125 72.90625 
L 55.078125 68.703125 
L 28.609375 0 
L 18.3125 0 
L 43.21875 64.59375 
L 8.203125 64.59375 
z
" id="BitstreamVeraSans-Roman-37"/>
      </defs>
      <g transform="translate(45.095 46.51125)scale(0.12 -0.12)">
       <use xlink:href="#BitstreamVeraSans-Roman-37"/>
       <use x="63.623046875" xlink:href="#BitstreamVeraSans-Roman-30"/>
       <use x="127.24609375" xlink:href="#BitstreamVeraSans-Roman-30"/>
      </g>
     </g>
    </g>
    <g id="text_16">
     <!-- # of mistakes -->
     <defs>
      <path d="M 9.421875 54.6875 
L 18.40625 54.6875 
L 18.40625 0 
L 9.421875 0 
z
M 9.421875 75.984375 
L 18.40625 75.984375 
L 18.40625 64.59375 
L 9.421875 64.59375 
z
" id="BitstreamVeraSans-Roman-69"/>
      <path d="M 9.078125 75.984375 
L 18.109375 75.984375 
L 18.109375 31.109375 
L 44.921875 54.6875 
L 56.390625 54.6875 
L 27.390625 29.109375 
L 57.625 0 
L 45.90625 0 
L 18.109375 26.703125 
L 18.109375 0 
L 9.078125 0 
z
" id="BitstreamVeraSans-Roman-6b"/>
      <path d="M 18.3125 70.21875 
L 18.3125 54.6875 
L 36.8125 54.6875 
L 36.8125 47.703125 
L 18.3125 47.703125 
L 18.3125 18.015625 
Q 18.3125 11.328125 20.140625 9.421875 
Q 21.96875 7.515625 27.59375 7.515625 
L 36.8125 7.515625 
L 36.8125 0 
L 27.59375 0 
Q 17.1875 0 13.234375 3.875 
Q 9.28125 7.765625 9.28125 18.015625 
L 9.28125 47.703125 
L 2.6875 47.703125 
L 2.6875 54.6875 
L 9.28125 54.6875 
L 9.28125 70.21875 
z
" id="BitstreamVeraSans-Roman-74"/>
     </defs>
     <g transform="translate(37.599375 257.58)rotate(-90.0)scale(0.12 -0.12)">
      <use xlink:href="#BitstreamVeraSans-Roman-23"/>
      <use x="83.7890625" xlink:href="#BitstreamVeraSans-Roman-20"/>
      <use x="115.576171875" xlink:href="#BitstreamVeraSans-Roman-6f"/>
      <use x="176.7578125" xlink:href="#BitstreamVeraSans-Roman-66"/>
      <use x="211.962890625" xlink:href="#BitstreamVeraSans-Roman-20"/>
      <use x="243.75" xlink:href="#BitstreamVeraSans-Roman-6d"/>
      <use x="341.162109375" xlink:href="#BitstreamVeraSans-Roman-69"/>
      <use x="368.9453125" xlink:href="#BitstreamVeraSans-Roman-73"/>
      <use x="421.044921875" xlink:href="#BitstreamVeraSans-Roman-74"/>
      <use x="460.25390625" xlink:href="#BitstreamVeraSans-Roman-61"/>
      <use x="521.533203125" xlink:href="#BitstreamVeraSans-Roman-6b"/>
      <use x="579.396484375" xlink:href="#BitstreamVeraSans-Roman-65"/>
      <use x="640.919921875" xlink:href="#BitstreamVeraSans-Roman-73"/>
     </g>
    </g>
   </g>
   <g id="text_17">
    <!-- Perceptron Training Mistakes -->
    <defs>
     <path d="M 19.671875 64.796875 
L 19.671875 37.40625 
L 32.078125 37.40625 
Q 38.96875 37.40625 42.71875 40.96875 
Q 46.484375 44.53125 46.484375 51.125 
Q 46.484375 57.671875 42.71875 61.234375 
Q 38.96875 64.796875 32.078125 64.796875 
z
M 9.8125 72.90625 
L 32.078125 72.90625 
Q 44.34375 72.90625 50.609375 67.359375 
Q 56.890625 61.8125 56.890625 51.125 
Q 56.890625 40.328125 50.609375 34.8125 
Q 44.34375 29.296875 32.078125 29.296875 
L 19.671875 29.296875 
L 19.671875 0 
L 9.8125 0 
z
" id="BitstreamVeraSans-Roman-50"/>
     <path d="M -0.296875 72.90625 
L 61.375 72.90625 
L 61.375 64.59375 
L 35.5 64.59375 
L 35.5 0 
L 25.59375 0 
L 25.59375 64.59375 
L -0.296875 64.59375 
z
" id="BitstreamVeraSans-Roman-54"/>
     <path d="M 9.8125 72.90625 
L 24.515625 72.90625 
L 43.109375 23.296875 
L 61.8125 72.90625 
L 76.515625 72.90625 
L 76.515625 0 
L 66.890625 0 
L 66.890625 64.015625 
L 48.09375 14.015625 
L 38.1875 14.015625 
L 19.390625 64.015625 
L 19.390625 0 
L 9.8125 0 
z
" id="BitstreamVeraSans-Roman-4d"/>
     <path d="M 48.78125 52.59375 
L 48.78125 44.1875 
Q 44.96875 46.296875 41.140625 47.34375 
Q 37.3125 48.390625 33.40625 48.390625 
Q 24.65625 48.390625 19.8125 42.84375 
Q 14.984375 37.3125 14.984375 27.296875 
Q 14.984375 17.28125 19.8125 11.734375 
Q 24.65625 6.203125 33.40625 6.203125 
Q 37.3125 6.203125 41.140625 7.25 
Q 44.96875 8.296875 48.78125 10.40625 
L 48.78125 2.09375 
Q 45.015625 0.34375 40.984375 -0.53125 
Q 36.96875 -1.421875 32.421875 -1.421875 
Q 20.0625 -1.421875 12.78125 6.34375 
Q 5.515625 14.109375 5.515625 27.296875 
Q 5.515625 40.671875 12.859375 48.328125 
Q 20.21875 56 33.015625 56 
Q 37.15625 56 41.109375 55.140625 
Q 45.0625 54.296875 48.78125 52.59375 
" id="BitstreamVeraSans-Roman-63"/>
     <path d="M 54.890625 33.015625 
L 54.890625 0 
L 45.90625 0 
L 45.90625 32.71875 
Q 45.90625 40.484375 42.875 44.328125 
Q 39.84375 48.1875 33.796875 48.1875 
Q 26.515625 48.1875 22.3125 43.546875 
Q 18.109375 38.921875 18.109375 30.90625 
L 18.109375 0 
L 9.078125 0 
L 9.078125 54.6875 
L 18.109375 54.6875 
L 18.109375 46.1875 
Q 21.34375 51.125 25.703125 53.5625 
Q 30.078125 56 35.796875 56 
Q 45.21875 56 50.046875 50.171875 
Q 54.890625 44.34375 54.890625 33.015625 
" id="BitstreamVeraSans-Roman-6e"/>
     <path d="M 45.40625 27.984375 
Q 45.40625 37.75 41.375 43.109375 
Q 37.359375 48.484375 30.078125 48.484375 
Q 22.859375 48.484375 18.828125 43.109375 
Q 14.796875 37.75 14.796875 27.984375 
Q 14.796875 18.265625 18.828125 12.890625 
Q 22.859375 7.515625 30.078125 7.515625 
Q 37.359375 7.515625 41.375 12.890625 
Q 45.40625 18.265625 45.40625 27.984375 
M 54.390625 6.78125 
Q 54.390625 -7.171875 48.1875 -13.984375 
Q 42 -20.796875 29.203125 -20.796875 
Q 24.46875 -20.796875 20.265625 -20.09375 
Q 16.0625 -19.390625 12.109375 -17.921875 
L 12.109375 -9.1875 
Q 16.0625 -11.328125 19.921875 -12.34375 
Q 23.78125 -13.375 27.78125 -13.375 
Q 36.625 -13.375 41.015625 -8.765625 
Q 45.40625 -4.15625 45.40625 5.171875 
L 45.40625 9.625 
Q 42.625 4.78125 38.28125 2.390625 
Q 33.9375 0 27.875 0 
Q 17.828125 0 11.671875 7.65625 
Q 5.515625 15.328125 5.515625 27.984375 
Q 5.515625 40.671875 11.671875 48.328125 
Q 17.828125 56 27.875 56 
Q 33.9375 56 38.28125 53.609375 
Q 42.625 51.21875 45.40625 46.390625 
L 45.40625 54.6875 
L 54.390625 54.6875 
z
" id="BitstreamVeraSans-Roman-67"/>
     <path d="M 41.109375 46.296875 
Q 39.59375 47.171875 37.8125 47.578125 
Q 36.03125 48 33.890625 48 
Q 26.265625 48 22.1875 43.046875 
Q 18.109375 38.09375 18.109375 28.8125 
L 18.109375 0 
L 9.078125 0 
L 9.078125 54.6875 
L 18.109375 54.6875 
L 18.109375 46.1875 
Q 20.953125 51.171875 25.484375 53.578125 
Q 30.03125 56 36.53125 56 
Q 37.453125 56 38.578125 55.875 
Q 39.703125 55.765625 41.0625 55.515625 
z
" id="BitstreamVeraSans-Roman-72"/>
    </defs>
    <g transform="translate(190.1925 38.2)scale(0.144 -0.144)">
     <use xlink:href="#BitstreamVeraSans-Roman-50"/>
     <use x="60.255859375" xlink:href="#BitstreamVeraSans-Roman-65"/>
     <use x="121.779296875" xlink:href="#BitstreamVeraSans-Roman-72"/>
     <use x="162.861328125" xlink:href="#BitstreamVeraSans-Roman-63"/>
     <use x="217.841796875" xlink:href="#BitstreamVeraSans-Roman-65"/>
     <use x="279.365234375" xlink:href="#BitstreamVeraSans-Roman-70"/>
     <use x="342.841796875" xlink:href="#BitstreamVeraSans-Roman-74"/>
     <use x="382.05078125" xlink:href="#BitstreamVeraSans-Roman-72"/>
     <use x="423.1328125" xlink:href="#BitstreamVeraSans-Roman-6f"/>
     <use x="484.314453125" xlink:href="#BitstreamVeraSans-Roman-6e"/>
     <use x="547.693359375" xlink:href="#BitstreamVeraSans-Roman-20"/>
     <use x="579.48046875" xlink:href="#BitstreamVeraSans-Roman-54"/>
     <use x="640.345703125" xlink:href="#BitstreamVeraSans-Roman-72"/>
     <use x="681.458984375" xlink:href="#BitstreamVeraSans-Roman-61"/>
     <use x="742.73828125" xlink:href="#BitstreamVeraSans-Roman-69"/>
     <use x="770.521484375" xlink:href="#BitstreamVeraSans-Roman-6e"/>
     <use x="833.900390625" xlink:href="#BitstreamVeraSans-Roman-69"/>
     <use x="861.68359375" xlink:href="#BitstreamVeraSans-Roman-6e"/>
     <use x="925.0625" xlink:href="#BitstreamVeraSans-Roman-67"/>
     <use x="988.5390625" xlink:href="#BitstreamVeraSans-Roman-20"/>
     <use x="1020.326171875" xlink:href="#BitstreamVeraSans-Roman-4d"/>
     <use x="1106.60546875" xlink:href="#BitstreamVeraSans-Roman-69"/>
     <use x="1134.388671875" xlink:href="#BitstreamVeraSans-Roman-73"/>
     <use x="1186.48828125" xlink:href="#BitstreamVeraSans-Roman-74"/>
     <use x="1225.697265625" xlink:href="#BitstreamVeraSans-Roman-61"/>
     <use x="1286.9765625" xlink:href="#BitstreamVeraSans-Roman-6b"/>
     <use x="1344.83984375" xlink:href="#BitstreamVeraSans-Roman-65"/>
     <use x="1406.36328125" xlink:href="#BitstreamVeraSans-Roman-73"/>
    </g>
   </g>
  </g>
 </g>
 <defs>
  <clipPath id="p3d79b5e4b6">
   <rect height="345.6" width="446.4" x="72.0" y="43.2"/>
  </clipPath>
 </defs>
</svg>
